<svg width="167" height="65" viewBox="0 0 167 65" fill="none" xmlns="http://www.w3.org/2000/svg">
<path d="M69.184 47.008H80.152V49.168H71.488V54.232H79.552V56.392H71.488V61.84H80.584V64H69.184V47.008ZM83.2779 47.008H85.9419L90.9339 60.832H90.9819L96.1659 47.008H98.6859L91.9899 64H89.8299L83.2779 47.008ZM102.473 47.008H113.441V49.168H104.777V54.232H112.841V56.392H104.777V61.84H113.873V64H102.473V47.008ZM118.895 47.008H121.919L131.279 60.976H131.327V47.008H133.631V64H130.703L121.247 50.032H121.199V64H118.895V47.008ZM143.299 49.168H137.827V47.008H151.075V49.168H145.603V64H143.299V49.168ZM155.782 60.448C156.198 61.072 156.726 61.536 157.366 61.84C158.022 62.128 158.694 62.272 159.382 62.272C159.766 62.272 160.158 62.216 160.558 62.104C160.958 61.976 161.318 61.792 161.638 61.552C161.974 61.312 162.246 61.016 162.454 60.664C162.662 60.312 162.766 59.904 162.766 59.44C162.766 58.784 162.558 58.288 162.142 57.952C161.726 57.6 161.206 57.312 160.582 57.088C159.974 56.848 159.302 56.624 158.566 56.416C157.846 56.192 157.174 55.888 156.55 55.504C155.942 55.12 155.43 54.608 155.014 53.968C154.598 53.312 154.39 52.432 154.39 51.328C154.39 50.832 154.494 50.304 154.702 49.744C154.926 49.184 155.27 48.672 155.734 48.208C156.198 47.744 156.79 47.36 157.51 47.056C158.246 46.736 159.126 46.576 160.15 46.576C161.078 46.576 161.966 46.704 162.814 46.96C163.662 47.216 164.406 47.736 165.046 48.52L163.174 50.224C162.886 49.776 162.478 49.416 161.95 49.144C161.422 48.872 160.822 48.736 160.15 48.736C159.51 48.736 158.974 48.824 158.542 49C158.126 49.16 157.79 49.376 157.534 49.648C157.278 49.904 157.094 50.184 156.982 50.488C156.886 50.792 156.838 51.072 156.838 51.328C156.838 52.048 157.046 52.6 157.462 52.984C157.878 53.368 158.39 53.68 158.998 53.92C159.622 54.16 160.294 54.376 161.014 54.568C161.75 54.76 162.422 55.032 163.03 55.384C163.654 55.72 164.174 56.184 164.59 56.776C165.006 57.352 165.214 58.152 165.214 59.176C165.214 59.992 165.054 60.728 164.734 61.384C164.43 62.04 164.014 62.592 163.486 63.04C162.958 63.488 162.334 63.832 161.614 64.072C160.894 64.312 160.126 64.432 159.31 64.432C158.222 64.432 157.19 64.24 156.214 63.856C155.238 63.472 154.462 62.88 153.886 62.08L155.782 60.448Z" fill="#376AED"/>
<rect width="166" height="38" rx="8" fill="#376AED"/>
<path d="M13.684 10.008H19.66C20.748 10.008 21.644 10.16 22.348 10.464C23.052 10.752 23.604 11.128 24.004 11.592C24.42 12.04 24.708 12.552 24.868 13.128C25.028 13.688 25.108 14.232 25.108 14.76C25.108 15.288 25.028 15.84 24.868 16.416C24.708 16.976 24.42 17.488 24.004 17.952C23.604 18.4 23.052 18.776 22.348 19.08C21.644 19.368 20.748 19.512 19.66 19.512H15.988V27H13.684V10.008ZM15.988 17.496H19.012C19.46 17.496 19.9 17.464 20.332 17.4C20.78 17.32 21.172 17.184 21.508 16.992C21.86 16.8 22.14 16.528 22.348 16.176C22.556 15.808 22.66 15.336 22.66 14.76C22.66 14.184 22.556 13.72 22.348 13.368C22.14 13 21.86 12.72 21.508 12.528C21.172 12.336 20.78 12.208 20.332 12.144C19.9 12.064 19.46 12.024 19.012 12.024H15.988V17.496ZM31.6526 10.008V20.424C31.6526 20.952 31.7246 21.504 31.8686 22.08C32.0126 22.64 32.2526 23.16 32.5886 23.64C32.9246 24.12 33.3646 24.512 33.9086 24.816C34.4526 25.12 35.1246 25.272 35.9246 25.272C36.7246 25.272 37.3966 25.12 37.9406 24.816C38.4846 24.512 38.9246 24.12 39.2606 23.64C39.5966 23.16 39.8366 22.64 39.9806 22.08C40.1246 21.504 40.1966 20.952 40.1966 20.424V10.008H42.5006V20.784C42.5006 21.776 42.3326 22.68 41.9966 23.496C41.6606 24.296 41.1966 24.992 40.6046 25.584C40.0126 26.176 39.3166 26.632 38.5166 26.952C37.7166 27.272 36.8526 27.432 35.9246 27.432C34.9966 27.432 34.1326 27.272 33.3326 26.952C32.5326 26.632 31.8366 26.176 31.2446 25.584C30.6526 24.992 30.1886 24.296 29.8526 23.496C29.5166 22.68 29.3486 21.776 29.3486 20.784V10.008H31.6526ZM48.309 10.008H54.213C54.949 10.008 55.629 10.096 56.253 10.272C56.893 10.448 57.437 10.712 57.885 11.064C58.349 11.4 58.709 11.84 58.965 12.384C59.237 12.912 59.373 13.536 59.373 14.256C59.373 15.232 59.101 16.032 58.557 16.656C58.013 17.264 57.309 17.712 56.445 18V18.048C56.957 18.08 57.437 18.216 57.885 18.456C58.333 18.68 58.717 18.984 59.037 19.368C59.373 19.736 59.637 20.168 59.829 20.664C60.021 21.16 60.117 21.696 60.117 22.272C60.117 23.04 59.957 23.72 59.637 24.312C59.333 24.888 58.909 25.376 58.365 25.776C57.821 26.176 57.189 26.48 56.469 26.688C55.749 26.896 54.973 27 54.141 27H48.309V10.008ZM50.613 17.064H53.757C54.189 17.064 54.597 17.024 54.981 16.944C55.365 16.848 55.701 16.696 55.989 16.488C56.277 16.28 56.501 16.016 56.661 15.696C56.837 15.376 56.925 14.984 56.925 14.52C56.925 13.848 56.709 13.264 56.277 12.768C55.845 12.272 55.165 12.024 54.237 12.024H50.613V17.064ZM50.613 24.984H53.997C54.349 24.984 54.733 24.952 55.149 24.888C55.581 24.808 55.981 24.664 56.349 24.456C56.717 24.232 57.029 23.936 57.285 23.568C57.541 23.2 57.669 22.712 57.669 22.104C57.669 21.096 57.341 20.344 56.685 19.848C56.029 19.336 55.141 19.08 54.021 19.08H50.613V24.984ZM65.1762 10.008H67.4802V24.84H75.2802V27H65.1762V10.008ZM79.3715 10.008H81.6755V27H79.3715V10.008ZM88.3052 23.448C88.7212 24.072 89.2492 24.536 89.8892 24.84C90.5452 25.128 91.2172 25.272 91.9052 25.272C92.2892 25.272 92.6812 25.216 93.0812 25.104C93.4812 24.976 93.8412 24.792 94.1612 24.552C94.4972 24.312 94.7692 24.016 94.9772 23.664C95.1852 23.312 95.2892 22.904 95.2892 22.44C95.2892 21.784 95.0812 21.288 94.6652 20.952C94.2492 20.6 93.7292 20.312 93.1052 20.088C92.4972 19.848 91.8252 19.624 91.0892 19.416C90.3692 19.192 89.6972 18.888 89.0732 18.504C88.4652 18.12 87.9532 17.608 87.5372 16.968C87.1212 16.312 86.9132 15.432 86.9132 14.328C86.9132 13.832 87.0172 13.304 87.2252 12.744C87.4492 12.184 87.7932 11.672 88.2572 11.208C88.7212 10.744 89.3132 10.36 90.0332 10.056C90.7692 9.736 91.6492 9.576 92.6732 9.576C93.6012 9.576 94.4892 9.704 95.3372 9.96C96.1852 10.216 96.9292 10.736 97.5692 11.52L95.6972 13.224C95.4092 12.776 95.0012 12.416 94.4732 12.144C93.9452 11.872 93.3452 11.736 92.6732 11.736C92.0332 11.736 91.4972 11.824 91.0652 12C90.6492 12.16 90.3132 12.376 90.0572 12.648C89.8012 12.904 89.6172 13.184 89.5052 13.488C89.4092 13.792 89.3612 14.072 89.3612 14.328C89.3612 15.048 89.5692 15.6 89.9852 15.984C90.4012 16.368 90.9132 16.68 91.5212 16.92C92.1452 17.16 92.8172 17.376 93.5372 17.568C94.2732 17.76 94.9452 18.032 95.5532 18.384C96.1772 18.72 96.6972 19.184 97.1132 19.776C97.5292 20.352 97.7372 21.152 97.7372 22.176C97.7372 22.992 97.5772 23.728 97.2572 24.384C96.9532 25.04 96.5372 25.592 96.0092 26.04C95.4812 26.488 94.8572 26.832 94.1372 27.072C93.4172 27.312 92.6492 27.432 91.8332 27.432C90.7452 27.432 89.7132 27.24 88.7372 26.856C87.7612 26.472 86.9852 25.88 86.4092 25.08L88.3052 23.448ZM102.887 10.008H105.191V17.064H113.999V10.008H116.303V27H113.999V19.224H105.191V27H102.887V10.008ZM122.426 10.008H133.394V12.168H124.73V17.232H132.794V19.392H124.73V24.84H133.826V27H122.426V10.008ZM138.464 10.008H144.392C145.592 10.008 146.64 10.144 147.536 10.416C148.448 10.688 149.232 11.056 149.888 11.52C150.56 11.968 151.112 12.488 151.544 13.08C151.992 13.672 152.344 14.28 152.6 14.904C152.856 15.528 153.04 16.152 153.152 16.776C153.264 17.4 153.32 17.976 153.32 18.504C153.32 19.592 153.12 20.648 152.72 21.672C152.32 22.68 151.728 23.584 150.944 24.384C150.16 25.168 149.184 25.8 148.016 26.28C146.864 26.76 145.528 27 144.008 27H138.464V10.008ZM140.768 24.84H143.672C144.648 24.84 145.568 24.712 146.432 24.456C147.312 24.184 148.08 23.784 148.736 23.256C149.392 22.728 149.912 22.072 150.296 21.288C150.68 20.488 150.872 19.56 150.872 18.504C150.872 17.96 150.784 17.328 150.608 16.608C150.432 15.872 150.096 15.176 149.6 14.52C149.12 13.864 148.448 13.312 147.584 12.864C146.72 12.4 145.6 12.168 144.224 12.168H140.768V24.84Z" fill="white"/>
</svg>
