<svg width="161" height="53" viewBox="0 0 161 53" fill="none" xmlns="http://www.w3.org/2000/svg">
<path d="M63.184 35.008H74.152V37.168H65.488V42.232H73.552V44.392H65.488V49.84H74.584V52H63.184V35.008ZM77.2779 35.008H79.9419L84.9339 48.832H84.9819L90.1659 35.008H92.6859L85.9899 52H83.8299L77.2779 35.008ZM96.4731 35.008H107.441V37.168H98.7771V42.232H106.841V44.392H98.7771V49.84H107.873V52H96.4731V35.008ZM112.895 35.008H115.919L125.279 48.976H125.327V35.008H127.631V52H124.703L115.247 38.032H115.199V52H112.895V35.008ZM137.299 37.168H131.827V35.008H145.075V37.168H139.603V52H137.299V37.168ZM149.782 48.448C150.198 49.072 150.726 49.536 151.366 49.84C152.022 50.128 152.694 50.272 153.382 50.272C153.766 50.272 154.158 50.216 154.558 50.104C154.958 49.976 155.318 49.792 155.638 49.552C155.974 49.312 156.246 49.016 156.454 48.664C156.662 48.312 156.766 47.904 156.766 47.44C156.766 46.784 156.558 46.288 156.142 45.952C155.726 45.6 155.206 45.312 154.582 45.088C153.974 44.848 153.302 44.624 152.566 44.416C151.846 44.192 151.174 43.888 150.55 43.504C149.942 43.12 149.43 42.608 149.014 41.968C148.598 41.312 148.39 40.432 148.39 39.328C148.39 38.832 148.494 38.304 148.702 37.744C148.926 37.184 149.27 36.672 149.734 36.208C150.198 35.744 150.79 35.36 151.51 35.056C152.246 34.736 153.126 34.576 154.15 34.576C155.078 34.576 155.966 34.704 156.814 34.96C157.662 35.216 158.406 35.736 159.046 36.52L157.174 38.224C156.886 37.776 156.478 37.416 155.95 37.144C155.422 36.872 154.822 36.736 154.15 36.736C153.51 36.736 152.974 36.824 152.542 37C152.126 37.16 151.79 37.376 151.534 37.648C151.278 37.904 151.094 38.184 150.982 38.488C150.886 38.792 150.838 39.072 150.838 39.328C150.838 40.048 151.046 40.6 151.462 40.984C151.878 41.368 152.39 41.68 152.998 41.92C153.622 42.16 154.294 42.376 155.014 42.568C155.75 42.76 156.422 43.032 157.03 43.384C157.654 43.72 158.174 44.184 158.59 44.776C159.006 45.352 159.214 46.152 159.214 47.176C159.214 47.992 159.054 48.728 158.734 49.384C158.43 50.04 158.014 50.592 157.486 51.04C156.958 51.488 156.334 51.832 155.614 52.072C154.894 52.312 154.126 52.432 153.31 52.432C152.222 52.432 151.19 52.24 150.214 51.856C149.238 51.472 148.462 50.88 147.886 50.08L149.782 48.448Z" fill="#376AED"/>
<rect width="153" height="28" rx="8" fill="#376AED"/>
<path d="M7.184 5.008H13.16C14.248 5.008 15.144 5.16 15.848 5.464C16.552 5.752 17.104 6.128 17.504 6.592C17.92 7.04 18.208 7.552 18.368 8.128C18.528 8.688 18.608 9.232 18.608 9.76C18.608 10.288 18.528 10.84 18.368 11.416C18.208 11.976 17.92 12.488 17.504 12.952C17.104 13.4 16.552 13.776 15.848 14.08C15.144 14.368 14.248 14.512 13.16 14.512H9.488V22H7.184V5.008ZM9.488 12.496H12.512C12.96 12.496 13.4 12.464 13.832 12.4C14.28 12.32 14.672 12.184 15.008 11.992C15.36 11.8 15.64 11.528 15.848 11.176C16.056 10.808 16.16 10.336 16.16 9.76C16.16 9.184 16.056 8.72 15.848 8.368C15.64 8 15.36 7.72 15.008 7.528C14.672 7.336 14.28 7.208 13.832 7.144C13.4 7.064 12.96 7.024 12.512 7.024H9.488V12.496ZM25.1526 5.008V15.424C25.1526 15.952 25.2246 16.504 25.3686 17.08C25.5126 17.64 25.7526 18.16 26.0886 18.64C26.4246 19.12 26.8646 19.512 27.4086 19.816C27.9526 20.12 28.6246 20.272 29.4246 20.272C30.2246 20.272 30.8966 20.12 31.4406 19.816C31.9846 19.512 32.4246 19.12 32.7606 18.64C33.0966 18.16 33.3366 17.64 33.4806 17.08C33.6246 16.504 33.6966 15.952 33.6966 15.424V5.008H36.0006V15.784C36.0006 16.776 35.8326 17.68 35.4966 18.496C35.1606 19.296 34.6966 19.992 34.1046 20.584C33.5126 21.176 32.8166 21.632 32.0166 21.952C31.2166 22.272 30.3526 22.432 29.4246 22.432C28.4966 22.432 27.6326 22.272 26.8326 21.952C26.0326 21.632 25.3366 21.176 24.7446 20.584C24.1526 19.992 23.6886 19.296 23.3526 18.496C23.0166 17.68 22.8486 16.776 22.8486 15.784V5.008H25.1526ZM41.809 5.008H47.713C48.449 5.008 49.129 5.096 49.753 5.272C50.393 5.448 50.937 5.712 51.385 6.064C51.849 6.4 52.209 6.84 52.465 7.384C52.737 7.912 52.873 8.536 52.873 9.256C52.873 10.232 52.601 11.032 52.057 11.656C51.513 12.264 50.809 12.712 49.945 13V13.048C50.457 13.08 50.937 13.216 51.385 13.456C51.833 13.68 52.217 13.984 52.537 14.368C52.873 14.736 53.137 15.168 53.329 15.664C53.521 16.16 53.617 16.696 53.617 17.272C53.617 18.04 53.457 18.72 53.137 19.312C52.833 19.888 52.409 20.376 51.865 20.776C51.321 21.176 50.689 21.48 49.969 21.688C49.249 21.896 48.473 22 47.641 22H41.809V5.008ZM44.113 12.064H47.257C47.689 12.064 48.097 12.024 48.481 11.944C48.865 11.848 49.201 11.696 49.489 11.488C49.777 11.28 50.001 11.016 50.161 10.696C50.337 10.376 50.425 9.984 50.425 9.52C50.425 8.848 50.209 8.264 49.777 7.768C49.345 7.272 48.665 7.024 47.737 7.024H44.113V12.064ZM44.113 19.984H47.497C47.849 19.984 48.233 19.952 48.649 19.888C49.081 19.808 49.481 19.664 49.849 19.456C50.217 19.232 50.529 18.936 50.785 18.568C51.041 18.2 51.169 17.712 51.169 17.104C51.169 16.096 50.841 15.344 50.185 14.848C49.529 14.336 48.641 14.08 47.521 14.08H44.113V19.984ZM58.6762 5.008H60.9802V19.84H68.7802V22H58.6762V5.008ZM72.8715 5.008H75.1755V22H72.8715V5.008ZM81.8052 18.448C82.2212 19.072 82.7492 19.536 83.3892 19.84C84.0452 20.128 84.7172 20.272 85.4052 20.272C85.7892 20.272 86.1812 20.216 86.5812 20.104C86.9812 19.976 87.3412 19.792 87.6612 19.552C87.9972 19.312 88.2692 19.016 88.4772 18.664C88.6852 18.312 88.7892 17.904 88.7892 17.44C88.7892 16.784 88.5812 16.288 88.1652 15.952C87.7492 15.6 87.2292 15.312 86.6052 15.088C85.9972 14.848 85.3252 14.624 84.5892 14.416C83.8692 14.192 83.1972 13.888 82.5732 13.504C81.9652 13.12 81.4532 12.608 81.0372 11.968C80.6212 11.312 80.4132 10.432 80.4132 9.328C80.4132 8.832 80.5172 8.304 80.7252 7.744C80.9492 7.184 81.2932 6.672 81.7572 6.208C82.2212 5.744 82.8132 5.36 83.5332 5.056C84.2692 4.736 85.1492 4.576 86.1732 4.576C87.1012 4.576 87.9892 4.704 88.8372 4.96C89.6852 5.216 90.4292 5.736 91.0692 6.52L89.1972 8.224C88.9092 7.776 88.5012 7.416 87.9732 7.144C87.4452 6.872 86.8452 6.736 86.1732 6.736C85.5332 6.736 84.9972 6.824 84.5652 7C84.1492 7.16 83.8132 7.376 83.5572 7.648C83.3012 7.904 83.1172 8.184 83.0052 8.488C82.9092 8.792 82.8612 9.072 82.8612 9.328C82.8612 10.048 83.0692 10.6 83.4852 10.984C83.9012 11.368 84.4132 11.68 85.0212 11.92C85.6452 12.16 86.3172 12.376 87.0372 12.568C87.7732 12.76 88.4452 13.032 89.0532 13.384C89.6772 13.72 90.1972 14.184 90.6132 14.776C91.0292 15.352 91.2372 16.152 91.2372 17.176C91.2372 17.992 91.0772 18.728 90.7572 19.384C90.4532 20.04 90.0372 20.592 89.5092 21.04C88.9812 21.488 88.3572 21.832 87.6372 22.072C86.9172 22.312 86.1492 22.432 85.3332 22.432C84.2452 22.432 83.2132 22.24 82.2372 21.856C81.2612 21.472 80.4852 20.88 79.9092 20.08L81.8052 18.448ZM96.3871 5.008H98.6911V12.064H107.499V5.008H109.803V22H107.499V14.224H98.6911V22H96.3871V5.008ZM115.926 5.008H126.894V7.168H118.23V12.232H126.294V14.392H118.23V19.84H127.326V22H115.926V5.008ZM131.964 5.008H137.892C139.092 5.008 140.14 5.144 141.036 5.416C141.948 5.688 142.732 6.056 143.388 6.52C144.06 6.968 144.612 7.488 145.044 8.08C145.492 8.672 145.844 9.28 146.1 9.904C146.356 10.528 146.54 11.152 146.652 11.776C146.764 12.4 146.82 12.976 146.82 13.504C146.82 14.592 146.62 15.648 146.22 16.672C145.82 17.68 145.228 18.584 144.444 19.384C143.66 20.168 142.684 20.8 141.516 21.28C140.364 21.76 139.028 22 137.508 22H131.964V5.008ZM134.268 19.84H137.172C138.148 19.84 139.068 19.712 139.932 19.456C140.812 19.184 141.58 18.784 142.236 18.256C142.892 17.728 143.412 17.072 143.796 16.288C144.18 15.488 144.372 14.56 144.372 13.504C144.372 12.96 144.284 12.328 144.108 11.608C143.932 10.872 143.596 10.176 143.1 9.52C142.62 8.864 141.948 8.312 141.084 7.864C140.22 7.4 139.1 7.168 137.724 7.168H134.268V19.84Z" fill="white"/>
</svg>
